<mxfile host="65bd71144e">
    <diagram id="mLAulhZLNdJp64PBJrre" name="Strona-1">
        <mxGraphModel dx="1533" dy="1009" grid="1" gridSize="10" guides="1" tooltips="1" connect="1" arrows="1" fold="1" page="1" pageScale="1" pageWidth="827" pageHeight="1169" math="0" shadow="0">
            <root>
                <mxCell id="0"/>
                <mxCell id="1" parent="0"/>
                <mxCell id="2" value="Konwersja na odcienie szarości" style="rounded=1;whiteSpace=wrap;html=1;" vertex="1" parent="1">
                    <mxGeometry x="11" y="300" width="130" height="110" as="geometry"/>
                </mxCell>
                <mxCell id="3" value="Detekcja krawędzi algorytmem Canny'ego" style="rounded=1;whiteSpace=wrap;html=1;" vertex="1" parent="1">
                    <mxGeometry x="390" y="300" width="130" height="110" as="geometry"/>
                </mxCell>
                <mxCell id="4" value="Morfologiczne domknięcie wykrytych krawędzi, dla dysku o promieniu 2" style="rounded=1;whiteSpace=wrap;html=1;" vertex="1" parent="1">
                    <mxGeometry x="530" y="190" width="130" height="110" as="geometry"/>
                </mxCell>
                <mxCell id="5" value="Morfologiczne domknięcie wykrytych krawędzi, dla dysku o promieniu 4" style="rounded=1;whiteSpace=wrap;html=1;" vertex="1" parent="1">
                    <mxGeometry x="530" y="410" width="130" height="110" as="geometry"/>
                </mxCell>
                <mxCell id="6" value="Ponowne znalezienie krawędzi i ich wypełnienie" style="rounded=1;whiteSpace=wrap;html=1;" vertex="1" parent="1">
                    <mxGeometry x="720" y="190" width="130" height="110" as="geometry"/>
                </mxCell>
                <mxCell id="7" value="" style="shape=flexArrow;endArrow=classic;html=1;" edge="1" parent="1">
                    <mxGeometry width="50" height="50" relative="1" as="geometry">
                        <mxPoint x="151" y="354.5" as="sourcePoint"/>
                        <mxPoint x="197" y="355" as="targetPoint"/>
                    </mxGeometry>
                </mxCell>
                <mxCell id="8" value="" style="shape=flexArrow;endArrow=classic;html=1;" edge="1" parent="1">
                    <mxGeometry width="50" height="50" relative="1" as="geometry">
                        <mxPoint x="450" y="290" as="sourcePoint"/>
                        <mxPoint x="520" y="260" as="targetPoint"/>
                    </mxGeometry>
                </mxCell>
                <mxCell id="9" value="" style="shape=flexArrow;endArrow=classic;html=1;" edge="1" parent="1">
                    <mxGeometry width="50" height="50" relative="1" as="geometry">
                        <mxPoint x="450" y="420" as="sourcePoint"/>
                        <mxPoint x="520" y="450" as="targetPoint"/>
                    </mxGeometry>
                </mxCell>
                <mxCell id="12" value="" style="shape=flexArrow;endArrow=classic;html=1;" edge="1" parent="1">
                    <mxGeometry width="50" height="50" relative="1" as="geometry">
                        <mxPoint x="670" y="244.6" as="sourcePoint"/>
                        <mxPoint x="716" y="245.1" as="targetPoint"/>
                    </mxGeometry>
                </mxCell>
                <mxCell id="13" value="" style="shape=flexArrow;endArrow=classic;html=1;" edge="1" parent="1">
                    <mxGeometry width="50" height="50" relative="1" as="geometry">
                        <mxPoint x="674" y="464.6" as="sourcePoint"/>
                        <mxPoint x="900" y="465" as="targetPoint"/>
                    </mxGeometry>
                </mxCell>
                <mxCell id="14" value="Obraz do detekcji pierścionków" style="rounded=0;whiteSpace=wrap;html=1;" vertex="1" parent="1">
                    <mxGeometry x="910" y="410" width="90" height="110" as="geometry"/>
                </mxCell>
                <mxCell id="15" value="Obraz do detekcji kolczyków i naszyjników" style="rounded=0;whiteSpace=wrap;html=1;" vertex="1" parent="1">
                    <mxGeometry x="910" y="190" width="90" height="110" as="geometry"/>
                </mxCell>
                <mxCell id="16" value="" style="shape=flexArrow;endArrow=classic;html=1;" edge="1" parent="1">
                    <mxGeometry width="50" height="50" relative="1" as="geometry">
                        <mxPoint x="860" y="244.59999999999988" as="sourcePoint"/>
                        <mxPoint x="906" y="245.09999999999988" as="targetPoint"/>
                    </mxGeometry>
                </mxCell>
                <mxCell id="17" value="Rozmycie metodą Gaussa" style="rounded=1;whiteSpace=wrap;html=1;" vertex="1" parent="1">
                    <mxGeometry x="200" y="300" width="130" height="110" as="geometry"/>
                </mxCell>
                <mxCell id="18" value="" style="shape=flexArrow;endArrow=classic;html=1;" edge="1" parent="1">
                    <mxGeometry width="50" height="50" relative="1" as="geometry">
                        <mxPoint x="340" y="354.55" as="sourcePoint"/>
                        <mxPoint x="386" y="355.05" as="targetPoint"/>
                    </mxGeometry>
                </mxCell>
            </root>
        </mxGraphModel>
    </diagram>
</mxfile>